<svg width="32" height="32" viewBox="0 0 32 32" fill="none" xmlns="http://www.w3.org/2000/svg">
<path d="M14.3317 6.18648L8.425 3.26648C5.23833 1.70648 2.625 3.29315 2.625 6.78648V26.5731C2.625 28.0931 3.89167 29.3331 5.43833 29.3331H15.3317C16.065 29.3331 16.665 28.7331 16.665 27.9998V9.87981C16.665 8.47981 15.6117 6.81315 14.3317 6.18648ZM11.9583 18.3331H7.33167C6.785 18.3331 6.33167 17.8798 6.33167 17.3331C6.33167 16.7865 6.785 16.3331 7.33167 16.3331H11.9583C12.505 16.3331 12.9583 16.7865 12.9583 17.3331C12.9583 17.8798 12.5183 18.3331 11.9583 18.3331ZM11.9583 12.9998H7.33167C6.785 12.9998 6.33167 12.5465 6.33167 11.9998C6.33167 11.4531 6.785 10.9998 7.33167 10.9998H11.9583C12.505 10.9998 12.9583 11.4531 12.9583 11.9998C12.9583 12.5465 12.5183 12.9998 11.9583 12.9998Z" fill="#6300FE"/>
<path d="M29.3346 24.0527V25.9994C29.3346 27.8394 27.8413 29.3327 26.0013 29.3327H19.9613C19.2413 29.3327 18.668 28.7594 18.668 28.0394V25.1594C20.0946 25.3327 21.6013 24.9194 22.6813 24.0527C23.588 24.7861 24.748 25.2261 26.0146 25.2261C27.2546 25.2261 28.4146 24.7861 29.3346 24.0527Z" fill="#6300FE"/>
<path d="M29.3346 20.066V20.0794C29.228 21.826 27.8013 23.226 26.0146 23.226C24.1613 23.226 22.6813 21.7194 22.6813 19.8927C22.6813 21.9327 20.8013 23.5727 18.668 23.1594V15.9994C18.668 15.146 19.4546 14.506 20.2946 14.6927L22.6813 15.226L23.3213 15.3727L26.0413 15.986C26.6946 16.1194 27.2946 16.346 27.8146 16.6794C27.8146 16.6927 27.828 16.6927 27.828 16.6927C27.9613 16.786 28.0946 16.8927 28.2146 17.0127C28.828 17.626 29.228 18.5194 29.3213 19.826C29.3213 19.906 29.3346 19.986 29.3346 20.066Z" fill="#6300FE"/>
</svg>
