<svg width="32" height="32" viewBox="0 0 32 32" fill="none" xmlns="http://www.w3.org/2000/svg">
<path d="M14.7346 19.9327L12.268 22.3993C11.748 22.9193 10.9213 22.9193 10.388 22.4127C10.2413 22.266 10.0946 22.1327 9.94797 21.986C8.57464 20.5993 7.33464 19.146 6.22797 17.626C5.13464 16.106 4.25464 14.586 3.61464 13.0793C2.98797 11.5594 2.66797 10.106 2.66797 8.71935C2.66797 7.81268 2.82797 6.94602 3.14797 6.14602C3.46797 5.33268 3.97464 4.58602 4.6813 3.91935C5.53464 3.07935 6.46797 2.66602 7.45464 2.66602C7.82797 2.66602 8.2013 2.74602 8.53464 2.90602C8.8813 3.06602 9.18797 3.30602 9.42797 3.65268L12.5213 8.01268C12.7613 8.34602 12.9346 8.65268 13.0546 8.94602C13.1746 9.22602 13.2413 9.50602 13.2413 9.75935C13.2413 10.0793 13.148 10.3993 12.9613 10.706C12.788 11.0127 12.5346 11.3327 12.2146 11.6527L11.2013 12.706C11.0546 12.8527 10.988 13.026 10.988 13.2393C10.988 13.346 11.0013 13.4393 11.028 13.546C11.068 13.6527 11.108 13.7327 11.1346 13.8127C11.3746 14.2527 11.788 14.826 12.3746 15.5194C12.9746 16.2127 13.6146 16.9193 14.308 17.626C14.4413 17.7593 14.588 17.8927 14.7213 18.026C15.2546 18.546 15.268 19.3993 14.7346 19.9327Z" fill="#6300FE"/>
<path d="M29.2941 24.4407C29.2941 24.814 29.2274 25.2007 29.0941 25.574C29.0541 25.6807 29.0141 25.7874 28.9608 25.894C28.7341 26.374 28.4408 26.8274 28.0541 27.254C27.4008 27.974 26.6808 28.494 25.8674 28.8274C25.8541 28.8274 25.8408 28.8407 25.8274 28.8407C25.0408 29.1607 24.1874 29.334 23.2674 29.334C21.9074 29.334 20.4541 29.014 18.9208 28.3607C17.3874 27.7074 15.8541 26.8274 14.3341 25.7207C13.8141 25.334 13.2941 24.9474 12.8008 24.534L17.1608 20.174C17.5341 20.454 17.8674 20.6674 18.1474 20.814C18.2141 20.8407 18.2941 20.8807 18.3874 20.9207C18.4941 20.9607 18.6008 20.974 18.7208 20.974C18.9474 20.974 19.1208 20.894 19.2674 20.7474L20.2808 19.7474C20.6141 19.414 20.9341 19.1607 21.2408 19.0007C21.5474 18.814 21.8541 18.7207 22.1874 18.7207C22.4408 18.7207 22.7074 18.774 23.0008 18.894C23.2941 19.014 23.6008 19.1874 23.9341 19.414L28.3474 22.5474C28.6941 22.7874 28.9341 23.0674 29.0808 23.4007C29.2141 23.734 29.2941 24.0674 29.2941 24.4407Z" fill="#6300FE"/>
</svg>
