<svg width="32" height="32" viewBox="0 0 32 32" fill="none" xmlns="http://www.w3.org/2000/svg">
<path d="M29.3346 28.334C29.3346 28.8807 28.8813 29.334 28.3346 29.334H3.66797C3.1213 29.334 2.66797 28.8807 2.66797 28.334C2.66797 27.7873 3.1213 27.334 3.66797 27.334H28.3346C28.8813 27.334 29.3346 27.7873 29.3346 28.334Z" fill="#6300FE"/>
<path d="M20.5193 6.02635L6.19927 20.3464C5.6526 20.893 4.7726 20.893 4.23927 20.3464H4.22594C2.3726 18.4797 2.3726 15.4664 4.22594 13.613L13.7593 4.07969C15.6259 2.21302 18.6393 2.21302 20.5059 4.07969C21.0526 4.59969 21.0526 5.49302 20.5193 6.02635Z" fill="#6300FE"/>
<path d="M27.7606 11.3204L23.6939 7.25375C23.1472 6.70708 22.2672 6.70708 21.7339 7.25375L7.41391 21.5737C6.86724 22.1071 6.86724 22.9871 7.41391 23.5337L11.4806 27.6137C13.3472 29.4671 16.3606 29.4671 18.2272 27.6137L27.7472 18.0804C29.6406 16.2138 29.6406 13.1871 27.7606 11.3204ZM17.0139 23.3604L15.4006 24.9871C15.0672 25.3204 14.5206 25.3204 14.1739 24.9871C13.8406 24.6537 13.8406 24.1071 14.1739 23.7604L15.8006 22.1337C16.1206 21.8138 16.6806 21.8138 17.0139 22.1337C17.3472 22.4671 17.3472 23.0404 17.0139 23.3604ZM22.3072 18.0671L19.0539 21.3337C18.7206 21.6537 18.1739 21.6537 17.8272 21.3337C17.4939 21.0004 17.4939 20.4537 17.8272 20.1071L21.0939 16.8404C21.4139 16.5204 21.9739 16.5204 22.3072 16.8404C22.6406 17.1871 22.6406 17.7338 22.3072 18.0671Z" fill="#6300FE"/>
</svg>
