<svg width="24" height="24" viewBox="0 0 24 24" fill="none" xmlns="http://www.w3.org/2000/svg">
<path d="M20.4098 6.95945V8.78945C20.4098 9.42945 20.1098 10.0295 19.5898 10.3995L8.58984 18.4595C7.87984 18.9795 6.90984 18.9795 6.20984 18.4495L4.76984 17.3695C4.11984 16.8795 3.58984 15.8195 3.58984 15.0095V6.95945C3.58984 5.83945 4.44984 4.59945 5.49984 4.20945L10.9698 2.15945C11.5398 1.94945 12.4598 1.94945 13.0298 2.15945L18.4998 4.20945C19.5498 4.59945 20.4098 5.83945 20.4098 6.95945Z" fill="#22C55E"/>
<path d="M18.8216 12.3394C19.4816 11.8594 20.4116 12.3294 20.4116 13.1494V15.0294C20.4116 15.8394 19.8816 16.8894 19.2316 17.3794L13.7616 21.4694C13.2816 21.8194 12.6416 21.9994 12.0016 21.9994C11.3616 21.9994 10.7216 21.8194 10.2416 21.4594L9.41157 20.8394C8.87157 20.4394 8.87157 19.6294 9.42157 19.2294L18.8216 12.3394Z" fill="#22C55E"/>
</svg>
