<svg width="32" height="32" viewBox="0 0 32 32" fill="none" xmlns="http://www.w3.org/2000/svg">
<path d="M27.2118 9.27992V11.7199C27.2118 12.5733 26.8118 13.3733 26.1185 13.8666L11.4518 24.6133C10.5052 25.3066 9.21182 25.3066 8.27849 24.5999L6.35849 23.1599C5.49182 22.5066 4.78516 21.0933 4.78516 20.0133V9.27992C4.78516 7.78659 5.93182 6.13326 7.33182 5.61326L14.6252 2.87992C15.3852 2.59992 16.6118 2.59992 17.3718 2.87992L24.6652 5.61326C26.0652 6.13326 27.2118 7.78659 27.2118 9.27992Z" fill="#6300FE"/>
<path d="M25.0928 16.4526C25.9728 15.8126 27.2128 16.4393 27.2128 17.5326V20.0393C27.2128 21.1193 26.5062 22.5193 25.6395 23.1726L18.3462 28.6259C17.7062 29.0926 16.8528 29.3326 15.9995 29.3326C15.1462 29.3326 14.2928 29.0926 13.6528 28.6126L12.5462 27.7859C11.8262 27.2526 11.8262 26.1726 12.5595 25.6393L25.0928 16.4526Z" fill="#6300FE"/>
</svg>
