<svg width="24" height="24" viewBox="0 0 24 24" fill="none" xmlns="http://www.w3.org/2000/svg">
<path d="M21.2986 22.0005C21.1186 22.0005 20.9386 21.9305 20.8086 21.8005L18.9486 19.9405C18.6786 19.6705 18.6786 19.2305 18.9486 18.9505C19.2186 18.6805 19.6586 18.6805 19.9386 18.9505L21.7986 20.8105C22.0686 21.0805 22.0686 21.5205 21.7986 21.8005C21.6586 21.9305 21.4786 22.0005 21.2986 22.0005Z" fill="#6300FE"/>
<path d="M11.5 2C6.26 2 2 6.26 2 11.5C2 16.74 6.26 21 11.5 21C16.74 21 21 16.74 21 11.5C21 6.26 16.74 2 11.5 2ZM14.68 12.06C14.12 13.84 12.17 14.81 11.5 14.81C10.81 14.81 8.9 13.88 8.32 12.06C7.94 10.87 8.37 9.32 9.73 8.89C10.35 8.69 11.01 8.81 11.5 9.18C11.98 8.81 12.65 8.69 13.28 8.89C14.63 9.33 15.06 10.88 14.68 12.06Z" fill="#6300FE"/>
</svg>
