<svg width="32" height="32" viewBox="0 0 32 32" fill="none" xmlns="http://www.w3.org/2000/svg">
<path d="M22.668 4.66602H9.33463C5.33464 4.66602 2.66797 6.66602 2.66797 11.3327V20.666C2.66797 25.3327 5.33464 27.3327 9.33463 27.3327H22.668C26.668 27.3327 29.3346 25.3327 29.3346 20.666V11.3327C29.3346 6.66602 26.668 4.66602 22.668 4.66602ZM23.2946 12.786L19.1213 16.1193C18.2413 16.826 17.1213 17.1727 16.0013 17.1727C14.8813 17.1727 13.748 16.826 12.8813 16.1193L8.70797 12.786C8.2813 12.4393 8.21463 11.7993 8.54797 11.3727C8.89463 10.946 9.5213 10.866 9.94797 11.2127L14.1213 14.546C15.1346 15.3593 16.8546 15.3593 17.868 14.546L22.0413 11.2127C22.468 10.866 23.108 10.9327 23.4413 11.3727C23.788 11.7993 23.7213 12.4393 23.2946 12.786Z" fill="#6300FE"/>
</svg>
