<svg width="24" height="25" viewBox="0 0 24 25" fill="none" xmlns="http://www.w3.org/2000/svg">
<path d="M16.6506 4.36035H9.91061V7.38035C9.91061 7.77035 9.59061 8.08035 9.21061 8.08035C8.83061 8.08035 8.51061 7.77035 8.51061 7.38035V4.36035H7.35061C3.40061 4.36035 2.10061 5.54035 2.01061 9.23035C2.00061 9.41035 2.08061 9.60035 2.21061 9.73035C2.34061 9.87035 2.51061 9.94035 2.71061 9.94035C4.11061 9.94035 5.26061 11.1004 5.26061 12.5004C5.26061 13.9004 4.11061 15.0604 2.71061 15.0604C2.52061 15.0604 2.34061 15.1304 2.21061 15.2704C2.08061 15.4004 2.00061 15.5904 2.01061 15.7704C2.10061 19.4604 3.40061 20.6404 7.35061 20.6404H8.51061V17.6204C8.51061 17.2304 8.83061 16.9204 9.21061 16.9204C9.59061 16.9204 9.91061 17.2304 9.91061 17.6204V20.6404H16.6506C20.7506 20.6404 22.0006 19.3904 22.0006 15.2904V9.71035C22.0006 5.61035 20.7506 4.36035 16.6506 4.36035ZM18.4706 12.4004L17.5406 13.3004C17.5006 13.3304 17.4906 13.3904 17.5006 13.4404L17.7206 14.7104C17.7606 14.9404 17.6706 15.1804 17.4706 15.3204C17.2806 15.4604 17.0306 15.4804 16.8206 15.3704L15.6706 14.7704C15.6306 14.7504 15.5706 14.7504 15.5306 14.7704L14.3806 15.3704C14.2906 15.4204 14.1906 15.4404 14.0906 15.4404C13.9606 15.4404 13.8406 15.4004 13.7306 15.3204C13.5406 15.1804 13.4406 14.9504 13.4806 14.7104L13.7006 13.4404C13.7106 13.3904 13.6906 13.3404 13.6606 13.3004L12.7306 12.4004C12.5606 12.2404 12.5006 11.9904 12.5706 11.7704C12.6406 11.5404 12.8306 11.3804 13.0706 11.3504L14.3506 11.1604C14.4006 11.1504 14.4406 11.1204 14.4706 11.0804L15.0406 9.92035C15.1506 9.71035 15.3606 9.58035 15.6006 9.58035C15.8406 9.58035 16.0506 9.71035 16.1506 9.92035L16.7206 11.0804C16.7406 11.1304 16.7806 11.1604 16.8306 11.1604L18.1106 11.3504C18.3506 11.3804 18.5406 11.5504 18.6106 11.7704C18.7006 11.9904 18.6406 12.2304 18.4706 12.4004Z" fill="#5E5073"/>
</svg>
